<svg width="700" height="952" viewBox="0 0 700 952" fill="none" xmlns="http://www.w3.org/2000/svg">
<g opacity="0.8">
<path d="M654.715 945.342L654.497 945.204C636.325 934.068 622.275 917.316 614.471 897.483L573.026 792.232C572.086 789.841 570.669 787.666 568.863 785.838C567.056 784.011 564.898 782.569 562.518 781.6L543.539 773.878C543.539 773.878 492.527 655.806 467.839 524.418L623.161 732.975C623.904 733.966 624.864 734.774 625.967 735.336C627.07 735.898 628.287 736.2 629.525 736.219C630.763 736.238 631.989 735.973 633.109 735.444C634.229 734.915 635.212 734.137 635.984 733.169L698.568 659.618C699.468 658.491 699.971 657.099 699.999 655.657C700.027 654.215 699.579 652.804 698.724 651.642L510.695 400.206C510.206 399.543 509.577 398.995 508.853 398.603C508.128 398.211 507.326 397.984 506.504 397.938C505.681 397.892 504.858 398.028 504.095 398.338C503.331 398.647 502.645 399.121 502.086 399.726L486.193 415.016C484.088 417.091 481.561 418.689 478.784 419.702C476.007 420.715 473.045 421.12 470.098 420.889C467.152 420.657 464.289 419.795 461.704 418.362C459.119 416.928 456.873 414.955 455.117 412.577L431.43 380.532L613.323 195.767C614.491 194.579 615.209 193.02 615.353 191.359C615.496 189.698 615.057 188.039 614.109 186.667L555.854 102.475C555.318 101.7 554.621 101.049 553.811 100.569C553 100.088 552.095 99.7879 551.158 99.6895C550.221 99.5911 549.274 99.6965 548.381 99.9985C547.488 100.301 546.671 100.792 545.987 101.439L379.385 258.775C378.676 259.446 378.233 260.352 378.14 261.324C378.047 262.297 378.31 263.27 378.88 264.063L405.458 300.849C411.625 309.38 411.478 321.874 404.544 329.124C399.644 334.247 398.044 335.924 398.044 335.924L151.295 3.06826C150.702 2.26676 149.956 1.59029 149.1 1.07766C148.245 0.565038 147.296 0.226346 146.309 0.0809575C145.323 -0.0644309 144.317 -0.0136361 143.35 0.230433C142.383 0.474501 141.473 0.907039 140.673 1.50326L59.9915 61.6172C59.1321 62.2599 58.4084 63.0663 57.8621 63.99C57.3158 64.9137 56.9578 65.9363 56.8086 66.999C56.6594 68.0617 56.722 69.1435 56.9928 70.1819C57.2636 71.2203 57.7373 72.1948 58.3865 73.0492L240.335 312.761C241.248 313.963 241.736 315.434 241.721 316.943C241.706 318.452 241.189 319.913 240.252 321.096C233.767 329.273 218.245 348.796 199.193 372.496C184.308 391.011 167.261 412.07 150.682 432.256C149.649 433.514 148.912 434.988 148.527 436.57C148.142 438.151 148.118 439.799 148.458 441.391C148.797 442.983 149.491 444.478 150.488 445.764C151.485 447.051 152.759 448.097 154.215 448.823L158.54 450.975C163.323 453.361 167.166 457.282 169.457 462.111C171.747 466.939 172.352 472.396 171.174 477.609C159.752 528.283 124.05 672.509 67.1885 774.567C60.6272 786.336 51.5559 796.515 40.6183 804.384C29.6808 812.252 17.1452 817.617 3.90148 820.096L3.06347 820.251C-1.51953 821.108 -0.736524 827.886 3.92248 827.69C13.4451 827.29 23.0738 827.007 32.8085 826.84C110.669 825.486 194.914 831.326 282.423 844.987C309.49 849.212 336.838 854.185 364.467 859.906C386.667 864.528 408.518 869.546 430.018 874.961C447.668 879.385 465.06 884.056 482.195 888.973C484.522 889.639 486.859 890.292 489.172 890.963C541.414 906.201 575.193 919.836 621.672 938.975C631.743 943.126 641.658 947.353 651.417 951.657C652.246 952.024 653.183 952.061 654.039 951.762C654.894 951.462 655.604 950.848 656.024 950.045C656.444 949.242 656.542 948.308 656.299 947.435C656.056 946.562 655.49 945.813 654.715 945.342ZM492.99 868.306L492.932 868.285L470.021 772.454L442.151 785.471L433.732 822.371C432.961 825.767 431.52 828.975 429.495 831.807C427.47 834.64 424.901 837.041 421.937 838.869C418.974 840.697 415.675 841.916 412.235 842.455C408.795 842.993 405.282 842.841 401.901 842.006C388.379 838.69 374.656 835.581 360.732 832.679C347.856 829.997 335.059 827.548 322.341 825.33C324.517 702.944 329.693 569.23 329.693 569.23L210.824 693.575L145.993 613.447C145.993 613.447 297.844 462.74 321.993 438.871C322.221 438.644 322.378 438.354 322.444 438.039C322.509 437.724 322.482 437.396 322.364 437.096C322.246 436.796 322.043 436.537 321.78 436.351C321.517 436.165 321.205 436.06 320.883 436.048C249.275 433.523 209.958 449.539 192.954 456.179C192.604 456.313 192.217 456.317 191.864 456.189C191.511 456.062 191.215 455.812 191.031 455.485C190.846 455.158 190.785 454.775 190.859 454.407C190.933 454.039 191.136 453.71 191.432 453.479C244.268 412.851 338.294 416.491 344.341 416.994L378.195 383.252C379.88 381.57 380.905 379.337 381.081 376.962C381.257 374.587 380.574 372.227 379.156 370.314L351.135 332.525C347.743 327.947 343.428 324.132 338.469 321.325C333.51 318.519 328.018 316.784 322.346 316.233C316.675 315.681 310.951 316.326 305.545 318.125C300.138 319.924 295.169 322.837 290.958 326.676L282.014 334.826L81.1795 70.4943L141.479 25.6562L390.643 360.23C391.26 361.06 392.049 361.745 392.956 362.241C393.863 362.736 394.867 363.029 395.898 363.099C396.929 363.169 397.963 363.015 398.929 362.648C399.894 362.28 400.769 361.707 401.492 360.969L414.82 347.386C422.298 339.76 426.832 329.729 427.615 319.076C428.397 308.423 425.379 297.837 419.095 289.199L401.095 264.465L549.552 122.975L594.975 187.765L411.326 373.714C409.65 375.41 408.642 377.653 408.484 380.032C408.327 382.41 409.031 384.766 410.469 386.668L438.13 423.254C454.509 443.269 485.08 444.746 502.67 425.625L505.193 422.88L677.818 652.826L629.893 707.648L400.214 398.57C399.427 397.512 398.421 396.637 397.264 396.005C396.107 395.372 394.828 394.998 393.512 394.907C392.197 394.816 390.878 395.01 389.645 395.477C388.412 395.944 387.295 396.673 386.37 397.612L363.302 421.066C406.146 433.206 434.146 448.866 445.901 506.104C457.656 563.342 484.927 686.983 525.602 791.673L554.208 802.238L591.845 907.556C591.845 907.556 522.686 878.261 492.99 868.306ZM424.771 315.329L424.884 315.221L424.911 315.259L424.784 315.34L424.771 315.329Z" fill="#002B59"/>
</g>
</svg>
